#!OML:ASF H:\ManfredETheater\Project 1\Capture day 1\Session 1\subject.ASF
:FULLY-SPECIFIED
:DEGREES
61
root -1.94948 15.746 32.0393 -158.869 -5.43881 -187.144
lowerback 17.6051 -1.05731 -5.57249
upperback 0.960087 -3.0025 -2.03324
thorax -8.68805 -1.38988 1.71864
lowerneck -17.5839 -3.22667 -2.82349
upperneck 4.88335 -4.22672 3.95688
head 4.42067 -1.95856 1.30933
rclavicle 1.59028e-015 -2.26615e-014
rhumerus -55.806 3.44694 -89.6387
rradius 75.4757
rwrist -4.61142
rhand -28.9462 0.589382
rfingers 7.12502
rthumb -2.29974 -29.378
lclavicle 1.59028e-015 -2.26615e-014
lhumerus -36.0084 -18.5451 97.6302
lradius 94.1824
lwrist 10.4434
lhand -26.6632 -16.7656
lfingers 7.12502
lthumb -0.0947569 13.2141
rfemur -52.2379 -15.5043 14.5015
rtibia 112.44
rfoot -10.898 -7.23429
rtoes -19.8366
lfemur -42.3262 -1.41848 -29.4198
ltibia 60.8928
lfoot -34.3248 -7.39911
ltoes 11.111
62
root -1.94389 15.7776 31.6952 -158.897 -5.70892 -187.088
lowerback 17.6623 -1.28875 -5.51032
upperback 0.967488 -3.26426 -1.78349
thorax -8.68128 -1.50748 2.01743
lowerneck -17.6977 -3.08108 -2.73547
upperneck 4.84771 -4.0302 3.71638
head 4.41294 -1.87645 1.237
rclavicle 3.8763e-014 4.53229e-014
rhumerus -58.2624 3.46705 -88.5763
rradius 76.6638
rwrist -5.3162
rhand -29.4853 1.59654
rfingers 7.12502
rthumb -2.82042 -28.3646
lclavicle 3.8763e-014 4.53229e-014
lhumerus -34.2682 -18.7029 98.2735
lradius 96.5006
lwrist 10.7107
lhand -26.8547 -16.7847
lfingers 7.12502
lthumb -0.279788 13.1949
rfemur -56.7526 -16.2788 14.9284
rtibia 114.957
rfoot -12.6895 -7.26901
rtoes -20.6645
lfemur -40.2477 -1.47489 -29.0895
ltibia 59.6632
lfoot -34.8984 -7.43022
ltoes 10.6748
63
root -1.93941 15.8221 31.3418 -158.972 -5.94876 -186.974
lowerback 17.7091 -1.52542 -5.40645
upperback 0.983739 -3.51687 -1.48016
thorax -8.65636 -1.62149 2.34763
lowerneck -17.7725 -2.87612 -2.61735
upperneck 4.78058 -3.74865 3.33987
head 4.38379 -1.76135 1.12579
rclavicle -5.03919e-014 -2.42517e-014
rhumerus -60.8207 3.7951 -87.622
rradius 78.3116
rwrist -5.91501
rhand -29.7075 2.4935
rfingers 7.12502
rthumb -3.03501 -27.4646
lclavicle -5.03919e-014 -2.42517e-014
lhumerus -32.786 -18.9321 98.9986
lradius 99.2053
lwrist 11.5363
lhand -26.9254 -16.7906
lfingers 7.12502
lthumb -0.348015 13.1889
rfemur -61.1632 -16.8311 15.4529
rtibia 116.914
rfoot -14.2949 -7.42644
rtoes -21.6323
lfemur -37.9804 -1.56019 -28.6947
ltibia 58.1692
lfoot -35.3214 -7.40243
ltoes 10.1981
64
root -1.93742 15.8807 30.9793 -159.083 -6.12864 -186.785
lowerback 17.7352 -1.76878 -5.2219
upperback 1.0057 -3.75703 -1.14318
thorax -8.61496 -1.73274 2.66436
lowerneck -17.7983 -2.61059 -2.47299
upperneck 4.68791 -3.38435 2.86495
head 4.33603 -1.61193 0.987627
rclavicle 4.1049e-014 2.36554e-014
rhumerus -63.3836 4.36131 -86.7947
rradius 80.2223
rwrist -6.30837
rhand -29.7713 3.43697
rfingers 7.12502
rthumb -3.09656 -26.5203
lclavicle 4.1049e-014 2.36554e-014
lhumerus -31.5215 -19.305 99.7103
lradius 102.171
lwrist 12.8083
lhand -26.8726 -16.86
lfingers 7.12502
lthumb -0.297089 13.1196
rfemur -65.4491 -17.0945 16.049
rtibia 118.292
rfoot -15.6528 -7.67369
rtoes -22.701
lfemur -35.5348 -1.69505 -28.2336
ltibia 56.393
lfoot -35.5264 -7.1988
ltoes 9.24596
65
root -1.93806 15.9548 30.6068 -159.246 -6.25647 -186.525
lowerback 17.7534 -2.02352 -4.93466
upperback 1.04087 -3.99144 -0.79157
thorax -8.55942 -1.84668 2.93663
lowerneck -17.7759 -2.52994 -2.23408
upperneck 4.59692 -2.89864 2.31617
head 4.28004 -1.24118 0.834332
rclavicle 3.08613e-014 2.78299e-015
rhumerus -65.8741 5.08375 -86.1024
rradius 82.2175
rwrist -6.46302
rhand -29.729 4.37317
rfingers 7.12502
rthumb -3.05571 -25.5847
lclavicle 3.08613e-014 2.78299e-015
lhumerus -30.4378 -19.8613 100.319
lradius 105.262
lwrist 14.2836
lhand -26.72 -17.0209
lfingers 7.12502
lthumb -0.149645 12.9588
rfemur -69.5053 -17.066 16.6713
rtibia 119.072
rfoot -16.7696 -7.98267
rtoes -23.7417
lfemur -32.8954 -1.91306 -27.712
ltibia 54.3349
lfoot -35.4265 -6.86703
ltoes 7.91078
66
root -1.94086 16.0452 30.2243 -159.458 -6.31897 -186.205
lowerback 17.7667 -2.28113 -4.55305
upperback 1.09346 -4.21428 -0.442666
thorax -8.48927 -1.96125 3.14896
lowerneck -17.7067 -2.18315 -2.06044
upperneck 4.49663 -2.42114 1.76107
head 4.21741 -1.03921 0.676333
rclavicle 4.18939e-014 -9.44227e-015
rhumerus -68.2383 5.89199 -85.5436
rradius 84.1697
rwrist -6.44022
rhand -29.6141 5.26541
rfingers 7.12502
rthumb -2.94478 -24.694
lclavicle 4.18939e-014 -9.44227e-015
lhumerus -29.5052 -20.6074 100.756
lradius 108.342
lwrist 15.6335
lhand -26.4854 -17.275
lfingers 7.12502
lthumb 0.0769181 12.7047
rfemur -73.2686 -16.7472 17.2672
rtibia 119.25
rfoot -17.6895 -8.34451
rtoes -24.8023
lfemur -30.0794 -2.22628 -27.1557
ltibia 52.0114
lfoot -34.9885 -6.32822
ltoes 5.79871
